<mxfile host="app.diagrams.net" modified="2024-04-21T09:46:50.089Z" agent="Mozilla/5.0 (Windows NT 10.0; Win64; x64) AppleWebKit/537.36 (KHTML, like Gecko) Chrome/124.0.0.0 Safari/537.36" etag="3Cp74DCwfFiIkBpS3MJ2" version="24.2.7" type="device">
  <diagram name="Page-1" id="74e2e168-ea6b-b213-b513-2b3c1d86103e">
    <mxGraphModel dx="1622" dy="1372" grid="1" gridSize="10" guides="1" tooltips="1" connect="1" arrows="1" fold="1" page="1" pageScale="1" pageWidth="1100" pageHeight="850" background="none" math="0" shadow="0">
      <root>
        <mxCell id="0" />
        <mxCell id="1" parent="0" />
        <mxCell id="7cckKoWY60Il6BobaiOP-200" value="" style="triangle;whiteSpace=wrap;html=1;rotation=-180;" vertex="1" parent="1">
          <mxGeometry x="690" y="1320" width="60" height="80" as="geometry" />
        </mxCell>
        <mxCell id="7cckKoWY60Il6BobaiOP-1" value="" style="rounded=0;whiteSpace=wrap;html=1;labelBackgroundColor=none;" vertex="1" parent="1">
          <mxGeometry x="330" y="165" width="120" height="60" as="geometry" />
        </mxCell>
        <mxCell id="7cckKoWY60Il6BobaiOP-21" value="" style="rounded=0;orthogonalLoop=1;jettySize=auto;html=1;endArrow=none;endFill=0;labelBackgroundColor=none;fontColor=default;" edge="1" parent="1" source="7cckKoWY60Il6BobaiOP-2" target="7cckKoWY60Il6BobaiOP-15">
          <mxGeometry relative="1" as="geometry" />
        </mxCell>
        <mxCell id="7cckKoWY60Il6BobaiOP-2" value="" style="rounded=0;whiteSpace=wrap;html=1;labelBackgroundColor=none;" vertex="1" parent="1">
          <mxGeometry x="660" y="160" width="120" height="60" as="geometry" />
        </mxCell>
        <mxCell id="7cckKoWY60Il6BobaiOP-105" style="edgeStyle=orthogonalEdgeStyle;rounded=0;orthogonalLoop=1;jettySize=auto;html=1;entryX=0.5;entryY=0;entryDx=0;entryDy=0;endArrow=none;endFill=0;" edge="1" parent="1" source="7cckKoWY60Il6BobaiOP-3" target="7cckKoWY60Il6BobaiOP-87">
          <mxGeometry relative="1" as="geometry">
            <Array as="points">
              <mxPoint x="810" y="590" />
              <mxPoint x="705" y="590" />
            </Array>
          </mxGeometry>
        </mxCell>
        <mxCell id="7cckKoWY60Il6BobaiOP-3" value="" style="rounded=0;whiteSpace=wrap;html=1;labelBackgroundColor=none;" vertex="1" parent="1">
          <mxGeometry x="750" y="495" width="120" height="60" as="geometry" />
        </mxCell>
        <mxCell id="7cckKoWY60Il6BobaiOP-81" style="rounded=0;orthogonalLoop=1;jettySize=auto;html=1;entryX=0.5;entryY=1;entryDx=0;entryDy=0;endArrow=none;endFill=0;" edge="1" parent="1" source="7cckKoWY60Il6BobaiOP-4" target="7cckKoWY60Il6BobaiOP-74">
          <mxGeometry relative="1" as="geometry" />
        </mxCell>
        <mxCell id="7cckKoWY60Il6BobaiOP-4" value="" style="rounded=0;whiteSpace=wrap;html=1;labelBackgroundColor=none;" vertex="1" parent="1">
          <mxGeometry x="755" y="500" width="110" height="50" as="geometry" />
        </mxCell>
        <mxCell id="7cckKoWY60Il6BobaiOP-5" value="" style="rhombus;whiteSpace=wrap;html=1;labelBackgroundColor=none;" vertex="1" parent="1">
          <mxGeometry x="510" y="150" width="80" height="80" as="geometry" />
        </mxCell>
        <mxCell id="7cckKoWY60Il6BobaiOP-6" value="" style="endArrow=none;html=1;rounded=0;exitX=1;exitY=0.5;exitDx=0;exitDy=0;entryX=0;entryY=0.5;entryDx=0;entryDy=0;startArrow=classic;startFill=0;labelBackgroundColor=none;fontColor=default;" edge="1" parent="1" source="7cckKoWY60Il6BobaiOP-1" target="7cckKoWY60Il6BobaiOP-5">
          <mxGeometry width="50" height="50" relative="1" as="geometry">
            <mxPoint x="510" y="300" as="sourcePoint" />
            <mxPoint x="560" y="250" as="targetPoint" />
          </mxGeometry>
        </mxCell>
        <mxCell id="7cckKoWY60Il6BobaiOP-7" value="" style="endArrow=classic;html=1;rounded=0;exitX=1;exitY=0.5;exitDx=0;exitDy=0;entryX=0;entryY=0.5;entryDx=0;entryDy=0;startArrow=none;startFill=0;endFill=0;labelBackgroundColor=none;fontColor=default;" edge="1" parent="1" target="7cckKoWY60Il6BobaiOP-2">
          <mxGeometry width="50" height="50" relative="1" as="geometry">
            <mxPoint x="590" y="189.5" as="sourcePoint" />
            <mxPoint x="720" y="190" as="targetPoint" />
          </mxGeometry>
        </mxCell>
        <mxCell id="7cckKoWY60Il6BobaiOP-30" style="rounded=0;orthogonalLoop=1;jettySize=auto;html=1;entryX=0.5;entryY=0;entryDx=0;entryDy=0;endArrow=none;endFill=0;labelBackgroundColor=none;fontColor=default;" edge="1" parent="1" source="7cckKoWY60Il6BobaiOP-10" target="7cckKoWY60Il6BobaiOP-1">
          <mxGeometry relative="1" as="geometry" />
        </mxCell>
        <mxCell id="7cckKoWY60Il6BobaiOP-10" value="" style="ellipse;whiteSpace=wrap;html=1;labelBackgroundColor=none;" vertex="1" parent="1">
          <mxGeometry x="280" y="35" width="90" height="40" as="geometry" />
        </mxCell>
        <mxCell id="7cckKoWY60Il6BobaiOP-31" style="rounded=0;orthogonalLoop=1;jettySize=auto;html=1;entryX=0;entryY=0.25;entryDx=0;entryDy=0;endArrow=none;endFill=0;labelBackgroundColor=none;fontColor=default;" edge="1" parent="1" source="7cckKoWY60Il6BobaiOP-11" target="7cckKoWY60Il6BobaiOP-1">
          <mxGeometry relative="1" as="geometry" />
        </mxCell>
        <mxCell id="7cckKoWY60Il6BobaiOP-11" value="" style="ellipse;whiteSpace=wrap;html=1;labelBackgroundColor=none;" vertex="1" parent="1">
          <mxGeometry x="170" y="145" width="90" height="40" as="geometry" />
        </mxCell>
        <mxCell id="7cckKoWY60Il6BobaiOP-32" style="rounded=0;orthogonalLoop=1;jettySize=auto;html=1;exitX=1;exitY=0.5;exitDx=0;exitDy=0;endArrow=none;endFill=0;entryX=0.5;entryY=1;entryDx=0;entryDy=0;labelBackgroundColor=none;fontColor=default;" edge="1" parent="1" source="7cckKoWY60Il6BobaiOP-12" target="7cckKoWY60Il6BobaiOP-1">
          <mxGeometry relative="1" as="geometry">
            <mxPoint x="390" y="234.99999999999977" as="targetPoint" />
          </mxGeometry>
        </mxCell>
        <mxCell id="7cckKoWY60Il6BobaiOP-12" value="" style="ellipse;whiteSpace=wrap;html=1;labelBackgroundColor=none;" vertex="1" parent="1">
          <mxGeometry x="180" y="245" width="90" height="40" as="geometry" />
        </mxCell>
        <mxCell id="7cckKoWY60Il6BobaiOP-13" value="" style="ellipse;whiteSpace=wrap;html=1;labelBackgroundColor=none;" vertex="1" parent="1">
          <mxGeometry x="690" y="20" width="110" height="40" as="geometry" />
        </mxCell>
        <mxCell id="7cckKoWY60Il6BobaiOP-27" style="rounded=0;orthogonalLoop=1;jettySize=auto;html=1;entryX=1;entryY=0.25;entryDx=0;entryDy=0;endArrow=none;endFill=0;labelBackgroundColor=none;fontColor=default;" edge="1" parent="1" source="7cckKoWY60Il6BobaiOP-14" target="7cckKoWY60Il6BobaiOP-2">
          <mxGeometry relative="1" as="geometry" />
        </mxCell>
        <mxCell id="7cckKoWY60Il6BobaiOP-14" value="" style="ellipse;whiteSpace=wrap;html=1;labelBackgroundColor=none;" vertex="1" parent="1">
          <mxGeometry x="830" y="-20" width="90" height="40" as="geometry" />
        </mxCell>
        <mxCell id="7cckKoWY60Il6BobaiOP-24" style="rounded=0;orthogonalLoop=1;jettySize=auto;html=1;entryX=0;entryY=0.5;entryDx=0;entryDy=0;endArrow=none;endFill=0;labelBackgroundColor=none;fontColor=default;" edge="1" parent="1" source="7cckKoWY60Il6BobaiOP-15" target="7cckKoWY60Il6BobaiOP-16">
          <mxGeometry relative="1" as="geometry" />
        </mxCell>
        <mxCell id="7cckKoWY60Il6BobaiOP-25" style="edgeStyle=orthogonalEdgeStyle;rounded=0;orthogonalLoop=1;jettySize=auto;html=1;exitX=1;exitY=0.5;exitDx=0;exitDy=0;entryX=0;entryY=0.5;entryDx=0;entryDy=0;endArrow=none;endFill=0;labelBackgroundColor=none;fontColor=default;" edge="1" parent="1" source="7cckKoWY60Il6BobaiOP-15" target="7cckKoWY60Il6BobaiOP-17">
          <mxGeometry relative="1" as="geometry" />
        </mxCell>
        <mxCell id="7cckKoWY60Il6BobaiOP-15" value="" style="ellipse;whiteSpace=wrap;html=1;labelBackgroundColor=none;" vertex="1" parent="1">
          <mxGeometry x="830" y="140" width="90" height="40" as="geometry" />
        </mxCell>
        <mxCell id="7cckKoWY60Il6BobaiOP-16" value="" style="ellipse;whiteSpace=wrap;html=1;labelBackgroundColor=none;" vertex="1" parent="1">
          <mxGeometry x="1000" y="60" width="90" height="40" as="geometry" />
        </mxCell>
        <mxCell id="7cckKoWY60Il6BobaiOP-17" value="" style="ellipse;whiteSpace=wrap;html=1;labelBackgroundColor=none;" vertex="1" parent="1">
          <mxGeometry x="1000" y="140" width="90" height="40" as="geometry" />
        </mxCell>
        <mxCell id="7cckKoWY60Il6BobaiOP-29" style="rounded=0;orthogonalLoop=1;jettySize=auto;html=1;entryX=1;entryY=0.5;entryDx=0;entryDy=0;endArrow=none;endFill=0;labelBackgroundColor=none;fontColor=default;" edge="1" parent="1" source="7cckKoWY60Il6BobaiOP-19" target="7cckKoWY60Il6BobaiOP-2">
          <mxGeometry relative="1" as="geometry" />
        </mxCell>
        <mxCell id="7cckKoWY60Il6BobaiOP-19" value="" style="ellipse;whiteSpace=wrap;html=1;labelBackgroundColor=none;" vertex="1" parent="1">
          <mxGeometry x="820" y="250" width="90" height="40" as="geometry" />
        </mxCell>
        <mxCell id="7cckKoWY60Il6BobaiOP-28" style="rounded=0;orthogonalLoop=1;jettySize=auto;html=1;entryX=0.612;entryY=-0.024;entryDx=0;entryDy=0;entryPerimeter=0;endArrow=none;endFill=0;labelBackgroundColor=none;fontColor=default;" edge="1" parent="1" source="7cckKoWY60Il6BobaiOP-13" target="7cckKoWY60Il6BobaiOP-2">
          <mxGeometry relative="1" as="geometry" />
        </mxCell>
        <mxCell id="7cckKoWY60Il6BobaiOP-38" style="edgeStyle=orthogonalEdgeStyle;rounded=0;orthogonalLoop=1;jettySize=auto;html=1;exitX=1;exitY=0.5;exitDx=0;exitDy=0;entryX=0.5;entryY=1;entryDx=0;entryDy=0;shape=link;labelBackgroundColor=none;fontColor=default;" edge="1" parent="1" source="7cckKoWY60Il6BobaiOP-33" target="7cckKoWY60Il6BobaiOP-2">
          <mxGeometry relative="1" as="geometry" />
        </mxCell>
        <mxCell id="7cckKoWY60Il6BobaiOP-39" style="edgeStyle=orthogonalEdgeStyle;rounded=0;orthogonalLoop=1;jettySize=auto;html=1;exitX=0;exitY=0.5;exitDx=0;exitDy=0;entryX=0.407;entryY=-0.053;entryDx=0;entryDy=0;entryPerimeter=0;labelBackgroundColor=none;fontColor=default;" edge="1" parent="1" source="7cckKoWY60Il6BobaiOP-33" target="7cckKoWY60Il6BobaiOP-34">
          <mxGeometry relative="1" as="geometry">
            <mxPoint x="200" y="420" as="targetPoint" />
          </mxGeometry>
        </mxCell>
        <mxCell id="7cckKoWY60Il6BobaiOP-33" value="" style="rhombus;whiteSpace=wrap;html=1;labelBackgroundColor=none;" vertex="1" parent="1">
          <mxGeometry x="450" y="330" width="80" height="80" as="geometry" />
        </mxCell>
        <mxCell id="7cckKoWY60Il6BobaiOP-34" value="" style="rounded=0;whiteSpace=wrap;html=1;labelBackgroundColor=none;" vertex="1" parent="1">
          <mxGeometry x="150" y="430" width="120" height="60" as="geometry" />
        </mxCell>
        <mxCell id="7cckKoWY60Il6BobaiOP-48" style="edgeStyle=none;rounded=0;orthogonalLoop=1;jettySize=auto;html=1;entryX=0;entryY=0.25;entryDx=0;entryDy=0;labelBackgroundColor=none;fontColor=default;endArrow=none;endFill=0;" edge="1" parent="1" source="7cckKoWY60Il6BobaiOP-44" target="7cckKoWY60Il6BobaiOP-34">
          <mxGeometry relative="1" as="geometry" />
        </mxCell>
        <mxCell id="7cckKoWY60Il6BobaiOP-44" value="" style="ellipse;whiteSpace=wrap;html=1;labelBackgroundColor=none;" vertex="1" parent="1">
          <mxGeometry x="-60" y="380" width="90" height="40" as="geometry" />
        </mxCell>
        <mxCell id="7cckKoWY60Il6BobaiOP-49" style="edgeStyle=none;rounded=0;orthogonalLoop=1;jettySize=auto;html=1;labelBackgroundColor=none;fontColor=default;endArrow=none;endFill=0;" edge="1" parent="1" source="7cckKoWY60Il6BobaiOP-45" target="7cckKoWY60Il6BobaiOP-34">
          <mxGeometry relative="1" as="geometry" />
        </mxCell>
        <mxCell id="7cckKoWY60Il6BobaiOP-45" value="" style="ellipse;whiteSpace=wrap;html=1;labelBackgroundColor=none;" vertex="1" parent="1">
          <mxGeometry x="-70" y="460" width="90" height="40" as="geometry" />
        </mxCell>
        <mxCell id="7cckKoWY60Il6BobaiOP-50" style="edgeStyle=none;rounded=0;orthogonalLoop=1;jettySize=auto;html=1;exitX=1;exitY=0.5;exitDx=0;exitDy=0;entryX=0;entryY=1;entryDx=0;entryDy=0;labelBackgroundColor=none;fontColor=default;endArrow=none;endFill=0;" edge="1" parent="1" source="7cckKoWY60Il6BobaiOP-46" target="7cckKoWY60Il6BobaiOP-34">
          <mxGeometry relative="1" as="geometry" />
        </mxCell>
        <mxCell id="7cckKoWY60Il6BobaiOP-46" value="" style="ellipse;whiteSpace=wrap;html=1;labelBackgroundColor=none;" vertex="1" parent="1">
          <mxGeometry x="-30" y="550" width="90" height="40" as="geometry" />
        </mxCell>
        <mxCell id="7cckKoWY60Il6BobaiOP-51" style="edgeStyle=none;rounded=0;orthogonalLoop=1;jettySize=auto;html=1;labelBackgroundColor=none;fontColor=default;endArrow=none;endFill=0;" edge="1" parent="1" source="7cckKoWY60Il6BobaiOP-47" target="7cckKoWY60Il6BobaiOP-34">
          <mxGeometry relative="1" as="geometry">
            <mxPoint x="190" y="500" as="targetPoint" />
          </mxGeometry>
        </mxCell>
        <mxCell id="7cckKoWY60Il6BobaiOP-47" value="" style="ellipse;whiteSpace=wrap;html=1;labelBackgroundColor=none;" vertex="1" parent="1">
          <mxGeometry x="90" y="590" width="90" height="40" as="geometry" />
        </mxCell>
        <mxCell id="7cckKoWY60Il6BobaiOP-53" value="Login" style="text;strokeColor=none;align=center;fillColor=none;html=1;verticalAlign=middle;whiteSpace=wrap;rounded=0;strokeWidth=1;labelBackgroundColor=none;perimeterSpacing=0;fontSize=20;" vertex="1" parent="1">
          <mxGeometry x="360" y="180" width="60" height="30" as="geometry" />
        </mxCell>
        <mxCell id="7cckKoWY60Il6BobaiOP-54" value="Parking" style="text;strokeColor=none;align=center;fillColor=none;html=1;verticalAlign=middle;whiteSpace=wrap;rounded=0;strokeWidth=1;labelBackgroundColor=none;perimeterSpacing=0;fontSize=20;" vertex="1" parent="1">
          <mxGeometry x="180" y="445" width="60" height="30" as="geometry" />
        </mxCell>
        <mxCell id="7cckKoWY60Il6BobaiOP-55" value="Employee" style="text;strokeColor=none;align=center;fillColor=none;html=1;verticalAlign=middle;whiteSpace=wrap;rounded=0;strokeWidth=1;labelBackgroundColor=none;perimeterSpacing=0;fontSize=20;" vertex="1" parent="1">
          <mxGeometry x="690" y="175" width="60" height="30" as="geometry" />
        </mxCell>
        <mxCell id="7cckKoWY60Il6BobaiOP-56" value="has" style="text;strokeColor=none;align=center;fillColor=none;html=1;verticalAlign=middle;whiteSpace=wrap;rounded=0;strokeWidth=1;labelBackgroundColor=none;perimeterSpacing=0;fontSize=18;" vertex="1" parent="1">
          <mxGeometry x="520" y="175" width="60" height="30" as="geometry" />
        </mxCell>
        <mxCell id="7cckKoWY60Il6BobaiOP-57" value="login_id" style="text;strokeColor=none;align=center;fillColor=none;html=1;verticalAlign=middle;whiteSpace=wrap;rounded=0;strokeWidth=1;labelBackgroundColor=none;perimeterSpacing=0;fontSize=16;fontStyle=4" vertex="1" parent="1">
          <mxGeometry x="295" y="40" width="60" height="30" as="geometry" />
        </mxCell>
        <mxCell id="7cckKoWY60Il6BobaiOP-58" value="password&lt;span style=&quot;color: rgba(0, 0, 0, 0); font-family: monospace; font-size: 0px; text-align: start; text-wrap: nowrap;&quot;&gt;%3CmxGraphModel%3E%3Croot%3E%3CmxCell%20id%3D%220%22%2F%3E%3CmxCell%20id%3D%221%22%20parent%3D%220%22%2F%3E%3CmxCell%20id%3D%222%22%20value%3D%22login_id%22%20style%3D%22text%3BstrokeColor%3Dnone%3Balign%3Dcenter%3BfillColor%3Dnone%3Bhtml%3D1%3BverticalAlign%3Dmiddle%3BwhiteSpace%3Dwrap%3Brounded%3D0%3BstrokeWidth%3D1%3BlabelBackgroundColor%3Dnone%3BperimeterSpacing%3D0%3BfontSize%3D16%3BfontStyle%3D4%22%20vertex%3D%221%22%20parent%3D%221%22%3E%3CmxGeometry%20x%3D%22295%22%20y%3D%2240%22%20width%3D%2260%22%20height%3D%2230%22%20as%3D%22geometry%22%2F%3E%3C%2FmxCell%3E%3C%2Froot%3E%3C%2FmxGraphModel%3E&lt;/span&gt;" style="text;strokeColor=none;align=center;fillColor=none;html=1;verticalAlign=middle;whiteSpace=wrap;rounded=0;strokeWidth=1;labelBackgroundColor=none;perimeterSpacing=0;fontSize=16;fontStyle=0" vertex="1" parent="1">
          <mxGeometry x="195" y="245" width="60" height="30" as="geometry" />
        </mxCell>
        <mxCell id="7cckKoWY60Il6BobaiOP-59" value="username" style="text;strokeColor=none;align=center;fillColor=none;html=1;verticalAlign=middle;whiteSpace=wrap;rounded=0;strokeWidth=1;labelBackgroundColor=none;perimeterSpacing=0;fontSize=16;fontStyle=0" vertex="1" parent="1">
          <mxGeometry x="185" y="150" width="60" height="30" as="geometry" />
        </mxCell>
        <mxCell id="7cckKoWY60Il6BobaiOP-60" value="salary&lt;span style=&quot;color: rgba(0, 0, 0, 0); font-family: monospace; font-size: 0px; text-align: start; text-wrap: nowrap;&quot;&gt;%3CmxGraphModel%3E%3Croot%3E%3CmxCell%20id%3D%220%22%2F%3E%3CmxCell%20id%3D%221%22%20parent%3D%220%22%2F%3E%3CmxCell%20id%3D%222%22%20value%3D%22password%26lt%3Bspan%20style%3D%26quot%3Bcolor%3A%20rgba(0%2C%200%2C%200%2C%200)%3B%20font-family%3A%20monospace%3B%20font-size%3A%200px%3B%20text-align%3A%20start%3B%20text-wrap%3A%20nowrap%3B%26quot%3B%26gt%3B%253CmxGraphModel%253E%253Croot%253E%253CmxCell%2520id%253D%25220%2522%252F%253E%253CmxCell%2520id%253D%25221%2522%2520parent%253D%25220%2522%252F%253E%253CmxCell%2520id%253D%25222%2522%2520value%253D%2522login_id%2522%2520style%253D%2522text%253BstrokeColor%253Dnone%253Balign%253Dcenter%253BfillColor%253Dnone%253Bhtml%253D1%253BverticalAlign%253Dmiddle%253BwhiteSpace%253Dwrap%253Brounded%253D0%253BstrokeWidth%253D1%253BlabelBackgroundColor%253Dnone%253BperimeterSpacing%253D0%253BfontSize%253D16%253BfontStyle%253D4%2522%2520vertex%253D%25221%2522%2520parent%253D%25221%2522%253E%253CmxGeometry%2520x%253D%2522295%2522%2520y%253D%252240%2522%2520width%253D%252260%2522%2520height%253D%252230%2522%2520as%253D%2522geometry%2522%252F%253E%253C%252FmxCell%253E%253C%252Froot%253E%253C%252FmxGraphModel%253E%26lt%3B%2Fspan%26gt%3B%22%20style%3D%22text%3BstrokeColor%3Dnone%3Balign%3Dcenter%3BfillColor%3Dnone%3Bhtml%3D1%3BverticalAlign%3Dmiddle%3BwhiteSpace%3Dwrap%3Brounded%3D0%3BstrokeWidth%3D1%3BlabelBackgroundColor%3Dnone%3BperimeterSpacing%3D0%3BfontSize%3D16%3BfontStyle%3D0%22%20vertex%3D%221%22%20parent%3D%221%22%3E%3CmxGeometry%20x%3D%22195%22%20y%3D%22245%22%20width%3D%2260%22%20height%3D%2230%22%20as%3D%22geometry%22%2F%3E%3C%2FmxCell%3E%3C%2Froot%3E%3C%2FmxGraphModel%3E&lt;/span&gt;" style="text;strokeColor=none;align=center;fillColor=none;html=1;verticalAlign=middle;whiteSpace=wrap;rounded=0;strokeWidth=1;labelBackgroundColor=none;perimeterSpacing=0;fontSize=16;fontStyle=0" vertex="1" parent="1">
          <mxGeometry x="835" y="255" width="60" height="30" as="geometry" />
        </mxCell>
        <mxCell id="7cckKoWY60Il6BobaiOP-61" value="name" style="text;strokeColor=none;align=center;fillColor=none;html=1;verticalAlign=middle;whiteSpace=wrap;rounded=0;strokeWidth=1;labelBackgroundColor=none;perimeterSpacing=0;fontSize=16;fontStyle=0" vertex="1" parent="1">
          <mxGeometry x="850" y="145" width="60" height="30" as="geometry" />
        </mxCell>
        <mxCell id="7cckKoWY60Il6BobaiOP-63" value="f_na&lt;span style=&quot;color: rgba(0, 0, 0, 0); font-family: monospace; font-size: 0px; text-align: start; text-wrap: nowrap;&quot;&gt;%3CmxGraphModel%3E%3Croot%3E%3CmxCell%20id%3D%220%22%2F%3E%3CmxCell%20id%3D%221%22%20parent%3D%220%22%2F%3E%3CmxCell%20id%3D%222%22%20value%3D%22name%22%20style%3D%22text%3BstrokeColor%3Dnone%3Balign%3Dcenter%3BfillColor%3Dnone%3Bhtml%3D1%3BverticalAlign%3Dmiddle%3BwhiteSpace%3Dwrap%3Brounded%3D0%3BstrokeWidth%3D1%3BlabelBackgroundColor%3Dnone%3BperimeterSpacing%3D0%3BfontSize%3D16%3BfontStyle%3D0%22%20vertex%3D%221%22%20parent%3D%221%22%3E%3CmxGeometry%20x%3D%22850%22%20y%3D%22145%22%20width%3D%2260%22%20height%3D%2230%22%20as%3D%22geometry%22%2F%3E%3C%2FmxCell%3E%3C%2Froot%3E%3C%2FmxGraphModel%3E&lt;/span&gt;me&lt;span style=&quot;color: rgba(0, 0, 0, 0); font-family: monospace; font-size: 0px; text-align: start; text-wrap: nowrap;&quot;&gt;%3CmxGraphModel%3E%3Croot%3E%3CmxCell%20id%3D%220%22%2F%3E%3CmxCell%20id%3D%221%22%20parent%3D%220%22%2F%3E%3CmxCell%20id%3D%222%22%20value%3D%22name%22%20style%3D%22text%3BstrokeColor%3Dnone%3Balign%3Dcenter%3BfillColor%3Dnone%3Bhtml%3D1%3BverticalAlign%3Dmiddle%3BwhiteSpace%3Dwrap%3Brounded%3D0%3BstrokeWidth%3D1%3BlabelBackgroundColor%3Dnone%3BperimeterSpacing%3D0%3BfontSize%3D16%3BfontStyle%3D0%22%20vertex%3D%221%22%20parent%3D%221%22%3E%3CmxGeometry%20x%3D%22850%22%20y%3D%22145%22%20width%3D%2260%22%20height%3D%2230%22%20as%3D%22geometry%22%2F%3E%3C%2FmxCell%3E%3C%2Froot%3E%3C%2FmxGraphModel%3E&lt;/span&gt;" style="text;strokeColor=none;align=center;fillColor=none;html=1;verticalAlign=middle;whiteSpace=wrap;rounded=0;strokeWidth=1;labelBackgroundColor=none;perimeterSpacing=0;fontSize=16;fontStyle=0" vertex="1" parent="1">
          <mxGeometry x="1015" y="65" width="60" height="30" as="geometry" />
        </mxCell>
        <mxCell id="7cckKoWY60Il6BobaiOP-64" value="L_name" style="text;strokeColor=none;align=center;fillColor=none;html=1;verticalAlign=middle;whiteSpace=wrap;rounded=0;strokeWidth=1;labelBackgroundColor=none;perimeterSpacing=0;fontSize=16;fontStyle=0" vertex="1" parent="1">
          <mxGeometry x="1015" y="145" width="59" height="30" as="geometry" />
        </mxCell>
        <mxCell id="7cckKoWY60Il6BobaiOP-65" value="Gender" style="text;strokeColor=none;align=center;fillColor=none;html=1;verticalAlign=middle;whiteSpace=wrap;rounded=0;strokeWidth=1;labelBackgroundColor=none;perimeterSpacing=0;fontSize=16;fontStyle=0" vertex="1" parent="1">
          <mxGeometry x="845.5" y="-15" width="59" height="30" as="geometry" />
        </mxCell>
        <mxCell id="7cckKoWY60Il6BobaiOP-66" value="employee_id" style="text;strokeColor=none;align=center;fillColor=none;html=1;verticalAlign=middle;whiteSpace=wrap;rounded=0;strokeWidth=1;labelBackgroundColor=none;perimeterSpacing=0;fontSize=16;fontStyle=4" vertex="1" parent="1">
          <mxGeometry x="705.5" y="22.5" width="79" height="35" as="geometry" />
        </mxCell>
        <mxCell id="7cckKoWY60Il6BobaiOP-69" style="edgeStyle=orthogonalEdgeStyle;rounded=0;orthogonalLoop=1;jettySize=auto;html=1;shape=link;" edge="1" parent="1" source="7cckKoWY60Il6BobaiOP-67">
          <mxGeometry relative="1" as="geometry">
            <mxPoint x="750" y="525" as="targetPoint" />
          </mxGeometry>
        </mxCell>
        <mxCell id="7cckKoWY60Il6BobaiOP-70" style="edgeStyle=orthogonalEdgeStyle;rounded=0;orthogonalLoop=1;jettySize=auto;html=1;entryX=1;entryY=0.5;entryDx=0;entryDy=0;" edge="1" parent="1" source="7cckKoWY60Il6BobaiOP-67" target="7cckKoWY60Il6BobaiOP-34">
          <mxGeometry relative="1" as="geometry" />
        </mxCell>
        <mxCell id="7cckKoWY60Il6BobaiOP-67" value="" style="rhombus;whiteSpace=wrap;html=1;" vertex="1" parent="1">
          <mxGeometry x="450" y="485" width="80" height="80" as="geometry" />
        </mxCell>
        <mxCell id="7cckKoWY60Il6BobaiOP-68" value="" style="rhombus;whiteSpace=wrap;html=1;" vertex="1" parent="1">
          <mxGeometry x="460" y="495" width="60" height="60" as="geometry" />
        </mxCell>
        <mxCell id="7cckKoWY60Il6BobaiOP-73" value="" style="ellipse;whiteSpace=wrap;html=1;labelBackgroundColor=none;" vertex="1" parent="1">
          <mxGeometry x="730" y="405" width="90" height="40" as="geometry" />
        </mxCell>
        <mxCell id="7cckKoWY60Il6BobaiOP-74" value="salary&lt;span style=&quot;color: rgba(0, 0, 0, 0); font-family: monospace; font-size: 0px; text-align: start; text-wrap: nowrap;&quot;&gt;%3CmxGraphModel%3E%3Croot%3E%3CmxCell%20id%3D%220%22%2F%3E%3CmxCell%20id%3D%221%22%20parent%3D%220%22%2F%3E%3CmxCell%20id%3D%222%22%20value%3D%22password%26lt%3Bspan%20style%3D%26quot%3Bcolor%3A%20rgba(0%2C%200%2C%200%2C%200)%3B%20font-family%3A%20monospace%3B%20font-size%3A%200px%3B%20text-align%3A%20start%3B%20text-wrap%3A%20nowrap%3B%26quot%3B%26gt%3B%253CmxGraphModel%253E%253Croot%253E%253CmxCell%2520id%253D%25220%2522%252F%253E%253CmxCell%2520id%253D%25221%2522%2520parent%253D%25220%2522%252F%253E%253CmxCell%2520id%253D%25222%2522%2520value%253D%2522login_id%2522%2520style%253D%2522text%253BstrokeColor%253Dnone%253Balign%253Dcenter%253BfillColor%253Dnone%253Bhtml%253D1%253BverticalAlign%253Dmiddle%253BwhiteSpace%253Dwrap%253Brounded%253D0%253BstrokeWidth%253D1%253BlabelBackgroundColor%253Dnone%253BperimeterSpacing%253D0%253BfontSize%253D16%253BfontStyle%253D4%2522%2520vertex%253D%25221%2522%2520parent%253D%25221%2522%253E%253CmxGeometry%2520x%253D%2522295%2522%2520y%253D%252240%2522%2520width%253D%252260%2522%2520height%253D%252230%2522%2520as%253D%2522geometry%2522%252F%253E%253C%252FmxCell%253E%253C%252Froot%253E%253C%252FmxGraphModel%253E%26lt%3B%2Fspan%26gt%3B%22%20style%3D%22text%3BstrokeColor%3Dnone%3Balign%3Dcenter%3BfillColor%3Dnone%3Bhtml%3D1%3BverticalAlign%3Dmiddle%3BwhiteSpace%3Dwrap%3Brounded%3D0%3BstrokeWidth%3D1%3BlabelBackgroundColor%3Dnone%3BperimeterSpacing%3D0%3BfontSize%3D16%3BfontStyle%3D0%22%20vertex%3D%221%22%20parent%3D%221%22%3E%3CmxGeometry%20x%3D%22195%22%20y%3D%22245%22%20width%3D%2260%22%20height%3D%2230%22%20as%3D%22geometry%22%2F%3E%3C%2FmxCell%3E%3C%2Froot%3E%3C%2FmxGraphModel%3E&lt;/span&gt;" style="text;strokeColor=none;align=center;fillColor=none;html=1;verticalAlign=middle;whiteSpace=wrap;rounded=0;strokeWidth=1;labelBackgroundColor=none;perimeterSpacing=0;fontSize=16;fontStyle=0" vertex="1" parent="1">
          <mxGeometry x="745" y="410" width="60" height="30" as="geometry" />
        </mxCell>
        <mxCell id="7cckKoWY60Il6BobaiOP-83" style="rounded=0;orthogonalLoop=1;jettySize=auto;html=1;entryX=0.75;entryY=0;entryDx=0;entryDy=0;endArrow=none;endFill=0;" edge="1" parent="1" source="7cckKoWY60Il6BobaiOP-75" target="7cckKoWY60Il6BobaiOP-4">
          <mxGeometry relative="1" as="geometry" />
        </mxCell>
        <mxCell id="7cckKoWY60Il6BobaiOP-75" value="" style="ellipse;whiteSpace=wrap;html=1;labelBackgroundColor=none;" vertex="1" parent="1">
          <mxGeometry x="895" y="390" width="90" height="40" as="geometry" />
        </mxCell>
        <mxCell id="7cckKoWY60Il6BobaiOP-76" value="salary&lt;span style=&quot;color: rgba(0, 0, 0, 0); font-family: monospace; font-size: 0px; text-align: start; text-wrap: nowrap;&quot;&gt;%3CmxGraphModel%3E%3Croot%3E%3CmxCell%20id%3D%220%22%2F%3E%3CmxCell%20id%3D%221%22%20parent%3D%220%22%2F%3E%3CmxCell%20id%3D%222%22%20value%3D%22password%26lt%3Bspan%20style%3D%26quot%3Bcolor%3A%20rgba(0%2C%200%2C%200%2C%200)%3B%20font-family%3A%20monospace%3B%20font-size%3A%200px%3B%20text-align%3A%20start%3B%20text-wrap%3A%20nowrap%3B%26quot%3B%26gt%3B%253CmxGraphModel%253E%253Croot%253E%253CmxCell%2520id%253D%25220%2522%252F%253E%253CmxCell%2520id%253D%25221%2522%2520parent%253D%25220%2522%252F%253E%253CmxCell%2520id%253D%25222%2522%2520value%253D%2522login_id%2522%2520style%253D%2522text%253BstrokeColor%253Dnone%253Balign%253Dcenter%253BfillColor%253Dnone%253Bhtml%253D1%253BverticalAlign%253Dmiddle%253BwhiteSpace%253Dwrap%253Brounded%253D0%253BstrokeWidth%253D1%253BlabelBackgroundColor%253Dnone%253BperimeterSpacing%253D0%253BfontSize%253D16%253BfontStyle%253D4%2522%2520vertex%253D%25221%2522%2520parent%253D%25221%2522%253E%253CmxGeometry%2520x%253D%2522295%2522%2520y%253D%252240%2522%2520width%253D%252260%2522%2520height%253D%252230%2522%2520as%253D%2522geometry%2522%252F%253E%253C%252FmxCell%253E%253C%252Froot%253E%253C%252FmxGraphModel%253E%26lt%3B%2Fspan%26gt%3B%22%20style%3D%22text%3BstrokeColor%3Dnone%3Balign%3Dcenter%3BfillColor%3Dnone%3Bhtml%3D1%3BverticalAlign%3Dmiddle%3BwhiteSpace%3Dwrap%3Brounded%3D0%3BstrokeWidth%3D1%3BlabelBackgroundColor%3Dnone%3BperimeterSpacing%3D0%3BfontSize%3D16%3BfontStyle%3D0%22%20vertex%3D%221%22%20parent%3D%221%22%3E%3CmxGeometry%20x%3D%22195%22%20y%3D%22245%22%20width%3D%2260%22%20height%3D%2230%22%20as%3D%22geometry%22%2F%3E%3C%2FmxCell%3E%3C%2Froot%3E%3C%2FmxGraphModel%3E&lt;/span&gt;" style="text;strokeColor=none;align=center;fillColor=none;html=1;verticalAlign=middle;whiteSpace=wrap;rounded=0;strokeWidth=1;labelBackgroundColor=none;perimeterSpacing=0;fontSize=16;fontStyle=0" vertex="1" parent="1">
          <mxGeometry x="910" y="395" width="60" height="30" as="geometry" />
        </mxCell>
        <mxCell id="7cckKoWY60Il6BobaiOP-85" style="rounded=0;orthogonalLoop=1;jettySize=auto;html=1;entryX=1;entryY=0.5;entryDx=0;entryDy=0;endArrow=none;endFill=0;" edge="1" parent="1" source="7cckKoWY60Il6BobaiOP-77" target="7cckKoWY60Il6BobaiOP-3">
          <mxGeometry relative="1" as="geometry" />
        </mxCell>
        <mxCell id="7cckKoWY60Il6BobaiOP-77" value="" style="ellipse;whiteSpace=wrap;html=1;labelBackgroundColor=none;" vertex="1" parent="1">
          <mxGeometry x="985" y="485" width="90" height="40" as="geometry" />
        </mxCell>
        <mxCell id="7cckKoWY60Il6BobaiOP-78" value="salary&lt;span style=&quot;color: rgba(0, 0, 0, 0); font-family: monospace; font-size: 0px; text-align: start; text-wrap: nowrap;&quot;&gt;%3CmxGraphModel%3E%3Croot%3E%3CmxCell%20id%3D%220%22%2F%3E%3CmxCell%20id%3D%221%22%20parent%3D%220%22%2F%3E%3CmxCell%20id%3D%222%22%20value%3D%22password%26lt%3Bspan%20style%3D%26quot%3Bcolor%3A%20rgba(0%2C%200%2C%200%2C%200)%3B%20font-family%3A%20monospace%3B%20font-size%3A%200px%3B%20text-align%3A%20start%3B%20text-wrap%3A%20nowrap%3B%26quot%3B%26gt%3B%253CmxGraphModel%253E%253Croot%253E%253CmxCell%2520id%253D%25220%2522%252F%253E%253CmxCell%2520id%253D%25221%2522%2520parent%253D%25220%2522%252F%253E%253CmxCell%2520id%253D%25222%2522%2520value%253D%2522login_id%2522%2520style%253D%2522text%253BstrokeColor%253Dnone%253Balign%253Dcenter%253BfillColor%253Dnone%253Bhtml%253D1%253BverticalAlign%253Dmiddle%253BwhiteSpace%253Dwrap%253Brounded%253D0%253BstrokeWidth%253D1%253BlabelBackgroundColor%253Dnone%253BperimeterSpacing%253D0%253BfontSize%253D16%253BfontStyle%253D4%2522%2520vertex%253D%25221%2522%2520parent%253D%25221%2522%253E%253CmxGeometry%2520x%253D%2522295%2522%2520y%253D%252240%2522%2520width%253D%252260%2522%2520height%253D%252230%2522%2520as%253D%2522geometry%2522%252F%253E%253C%252FmxCell%253E%253C%252Froot%253E%253C%252FmxGraphModel%253E%26lt%3B%2Fspan%26gt%3B%22%20style%3D%22text%3BstrokeColor%3Dnone%3Balign%3Dcenter%3BfillColor%3Dnone%3Bhtml%3D1%3BverticalAlign%3Dmiddle%3BwhiteSpace%3Dwrap%3Brounded%3D0%3BstrokeWidth%3D1%3BlabelBackgroundColor%3Dnone%3BperimeterSpacing%3D0%3BfontSize%3D16%3BfontStyle%3D0%22%20vertex%3D%221%22%20parent%3D%221%22%3E%3CmxGeometry%20x%3D%22195%22%20y%3D%22245%22%20width%3D%2260%22%20height%3D%2230%22%20as%3D%22geometry%22%2F%3E%3C%2FmxCell%3E%3C%2Froot%3E%3C%2FmxGraphModel%3E&lt;/span&gt;" style="text;strokeColor=none;align=center;fillColor=none;html=1;verticalAlign=middle;whiteSpace=wrap;rounded=0;strokeWidth=1;labelBackgroundColor=none;perimeterSpacing=0;fontSize=16;fontStyle=0" vertex="1" parent="1">
          <mxGeometry x="1000" y="490" width="60" height="30" as="geometry" />
        </mxCell>
        <mxCell id="7cckKoWY60Il6BobaiOP-86" style="edgeStyle=none;rounded=0;orthogonalLoop=1;jettySize=auto;html=1;endArrow=none;endFill=0;" edge="1" parent="1" source="7cckKoWY60Il6BobaiOP-79">
          <mxGeometry relative="1" as="geometry">
            <mxPoint x="860" y="560" as="targetPoint" />
          </mxGeometry>
        </mxCell>
        <mxCell id="7cckKoWY60Il6BobaiOP-79" value="" style="ellipse;whiteSpace=wrap;html=1;labelBackgroundColor=none;" vertex="1" parent="1">
          <mxGeometry x="930" y="570" width="90" height="40" as="geometry" />
        </mxCell>
        <mxCell id="7cckKoWY60Il6BobaiOP-80" value="salary&lt;span style=&quot;color: rgba(0, 0, 0, 0); font-family: monospace; font-size: 0px; text-align: start; text-wrap: nowrap;&quot;&gt;%3CmxGraphModel%3E%3Croot%3E%3CmxCell%20id%3D%220%22%2F%3E%3CmxCell%20id%3D%221%22%20parent%3D%220%22%2F%3E%3CmxCell%20id%3D%222%22%20value%3D%22password%26lt%3Bspan%20style%3D%26quot%3Bcolor%3A%20rgba(0%2C%200%2C%200%2C%200)%3B%20font-family%3A%20monospace%3B%20font-size%3A%200px%3B%20text-align%3A%20start%3B%20text-wrap%3A%20nowrap%3B%26quot%3B%26gt%3B%253CmxGraphModel%253E%253Croot%253E%253CmxCell%2520id%253D%25220%2522%252F%253E%253CmxCell%2520id%253D%25221%2522%2520parent%253D%25220%2522%252F%253E%253CmxCell%2520id%253D%25222%2522%2520value%253D%2522login_id%2522%2520style%253D%2522text%253BstrokeColor%253Dnone%253Balign%253Dcenter%253BfillColor%253Dnone%253Bhtml%253D1%253BverticalAlign%253Dmiddle%253BwhiteSpace%253Dwrap%253Brounded%253D0%253BstrokeWidth%253D1%253BlabelBackgroundColor%253Dnone%253BperimeterSpacing%253D0%253BfontSize%253D16%253BfontStyle%253D4%2522%2520vertex%253D%25221%2522%2520parent%253D%25221%2522%253E%253CmxGeometry%2520x%253D%2522295%2522%2520y%253D%252240%2522%2520width%253D%252260%2522%2520height%253D%252230%2522%2520as%253D%2522geometry%2522%252F%253E%253C%252FmxCell%253E%253C%252Froot%253E%253C%252FmxGraphModel%253E%26lt%3B%2Fspan%26gt%3B%22%20style%3D%22text%3BstrokeColor%3Dnone%3Balign%3Dcenter%3BfillColor%3Dnone%3Bhtml%3D1%3BverticalAlign%3Dmiddle%3BwhiteSpace%3Dwrap%3Brounded%3D0%3BstrokeWidth%3D1%3BlabelBackgroundColor%3Dnone%3BperimeterSpacing%3D0%3BfontSize%3D16%3BfontStyle%3D0%22%20vertex%3D%221%22%20parent%3D%221%22%3E%3CmxGeometry%20x%3D%22195%22%20y%3D%22245%22%20width%3D%2260%22%20height%3D%2230%22%20as%3D%22geometry%22%2F%3E%3C%2FmxCell%3E%3C%2Froot%3E%3C%2FmxGraphModel%3E&lt;/span&gt;" style="text;strokeColor=none;align=center;fillColor=none;html=1;verticalAlign=middle;whiteSpace=wrap;rounded=0;strokeWidth=1;labelBackgroundColor=none;perimeterSpacing=0;fontSize=16;fontStyle=0" vertex="1" parent="1">
          <mxGeometry x="945" y="575" width="60" height="30" as="geometry" />
        </mxCell>
        <mxCell id="7cckKoWY60Il6BobaiOP-104" style="edgeStyle=orthogonalEdgeStyle;rounded=0;orthogonalLoop=1;jettySize=auto;html=1;entryX=0.25;entryY=0;entryDx=0;entryDy=0;endArrow=none;endFill=0;shape=link;" edge="1" parent="1" source="7cckKoWY60Il6BobaiOP-87" target="7cckKoWY60Il6BobaiOP-89">
          <mxGeometry relative="1" as="geometry" />
        </mxCell>
        <mxCell id="7cckKoWY60Il6BobaiOP-116" style="edgeStyle=orthogonalEdgeStyle;rounded=0;orthogonalLoop=1;jettySize=auto;html=1;exitX=0;exitY=0.5;exitDx=0;exitDy=0;entryX=0.75;entryY=0;entryDx=0;entryDy=0;shape=link;" edge="1" parent="1" source="7cckKoWY60Il6BobaiOP-87" target="7cckKoWY60Il6BobaiOP-106">
          <mxGeometry relative="1" as="geometry">
            <mxPoint x="460" y="750" as="targetPoint" />
          </mxGeometry>
        </mxCell>
        <mxCell id="7cckKoWY60Il6BobaiOP-87" value="" style="rhombus;whiteSpace=wrap;html=1;" vertex="1" parent="1">
          <mxGeometry x="665" y="660" width="80" height="80" as="geometry" />
        </mxCell>
        <mxCell id="7cckKoWY60Il6BobaiOP-88" value="" style="rhombus;whiteSpace=wrap;html=1;" vertex="1" parent="1">
          <mxGeometry x="675" y="670" width="60" height="60" as="geometry" />
        </mxCell>
        <mxCell id="7cckKoWY60Il6BobaiOP-89" value="" style="rounded=0;whiteSpace=wrap;html=1;labelBackgroundColor=none;" vertex="1" parent="1">
          <mxGeometry x="804.5" y="945" width="120" height="60" as="geometry" />
        </mxCell>
        <mxCell id="7cckKoWY60Il6BobaiOP-91" value="" style="rounded=0;whiteSpace=wrap;html=1;labelBackgroundColor=none;" vertex="1" parent="1">
          <mxGeometry x="809.5" y="950" width="110" height="50" as="geometry" />
        </mxCell>
        <mxCell id="7cckKoWY60Il6BobaiOP-92" value="" style="ellipse;whiteSpace=wrap;html=1;labelBackgroundColor=none;" vertex="1" parent="1">
          <mxGeometry x="784.5" y="1070" width="90" height="40" as="geometry" />
        </mxCell>
        <mxCell id="7cckKoWY60Il6BobaiOP-103" style="edgeStyle=none;rounded=0;orthogonalLoop=1;jettySize=auto;html=1;endArrow=none;endFill=0;entryX=0.415;entryY=0.998;entryDx=0;entryDy=0;entryPerimeter=0;" edge="1" parent="1" target="7cckKoWY60Il6BobaiOP-89">
          <mxGeometry relative="1" as="geometry">
            <mxPoint x="860" y="1010" as="targetPoint" />
            <mxPoint x="840" y="1070" as="sourcePoint" />
          </mxGeometry>
        </mxCell>
        <mxCell id="7cckKoWY60Il6BobaiOP-93" value="pay_date" style="text;strokeColor=none;align=center;fillColor=none;html=1;verticalAlign=middle;whiteSpace=wrap;rounded=0;strokeWidth=1;labelBackgroundColor=none;perimeterSpacing=0;fontSize=16;fontStyle=0" vertex="1" parent="1">
          <mxGeometry x="799.5" y="1075" width="60" height="30" as="geometry" />
        </mxCell>
        <mxCell id="7cckKoWY60Il6BobaiOP-94" style="rounded=0;orthogonalLoop=1;jettySize=auto;html=1;endArrow=none;endFill=0;entryX=0.5;entryY=0;entryDx=0;entryDy=0;" edge="1" parent="1" source="7cckKoWY60Il6BobaiOP-95" target="7cckKoWY60Il6BobaiOP-89">
          <mxGeometry relative="1" as="geometry">
            <mxPoint x="890" y="940" as="targetPoint" />
          </mxGeometry>
        </mxCell>
        <mxCell id="7cckKoWY60Il6BobaiOP-95" value="" style="ellipse;whiteSpace=wrap;html=1;labelBackgroundColor=none;" vertex="1" parent="1">
          <mxGeometry x="949.5" y="840" width="90" height="40" as="geometry" />
        </mxCell>
        <mxCell id="7cckKoWY60Il6BobaiOP-96" value="pay_id" style="text;strokeColor=none;align=center;fillColor=none;html=1;verticalAlign=middle;whiteSpace=wrap;rounded=0;strokeWidth=1;labelBackgroundColor=none;perimeterSpacing=0;fontSize=16;fontStyle=0" vertex="1" parent="1">
          <mxGeometry x="964.5" y="845" width="60" height="30" as="geometry" />
        </mxCell>
        <mxCell id="7cckKoWY60Il6BobaiOP-97" style="rounded=0;orthogonalLoop=1;jettySize=auto;html=1;entryX=1;entryY=0.5;entryDx=0;entryDy=0;endArrow=none;endFill=0;" edge="1" parent="1" source="7cckKoWY60Il6BobaiOP-98" target="7cckKoWY60Il6BobaiOP-89">
          <mxGeometry relative="1" as="geometry" />
        </mxCell>
        <mxCell id="7cckKoWY60Il6BobaiOP-98" value="" style="ellipse;whiteSpace=wrap;html=1;labelBackgroundColor=none;" vertex="1" parent="1">
          <mxGeometry x="1039.5" y="935" width="90" height="40" as="geometry" />
        </mxCell>
        <mxCell id="7cckKoWY60Il6BobaiOP-99" value="pay_amount" style="text;strokeColor=none;align=center;fillColor=none;html=1;verticalAlign=middle;whiteSpace=wrap;rounded=0;strokeWidth=1;labelBackgroundColor=none;perimeterSpacing=0;fontSize=15;fontStyle=0" vertex="1" parent="1">
          <mxGeometry x="1054.5" y="940" width="60" height="30" as="geometry" />
        </mxCell>
        <mxCell id="7cckKoWY60Il6BobaiOP-100" style="edgeStyle=none;rounded=0;orthogonalLoop=1;jettySize=auto;html=1;endArrow=none;endFill=0;entryX=1;entryY=1;entryDx=0;entryDy=0;" edge="1" parent="1" source="7cckKoWY60Il6BobaiOP-101" target="7cckKoWY60Il6BobaiOP-89">
          <mxGeometry relative="1" as="geometry">
            <mxPoint x="910" y="1010" as="targetPoint" />
          </mxGeometry>
        </mxCell>
        <mxCell id="7cckKoWY60Il6BobaiOP-101" value="" style="ellipse;whiteSpace=wrap;html=1;labelBackgroundColor=none;" vertex="1" parent="1">
          <mxGeometry x="984.5" y="1020" width="90" height="40" as="geometry" />
        </mxCell>
        <mxCell id="7cckKoWY60Il6BobaiOP-102" value="customer_id" style="text;strokeColor=none;align=center;fillColor=none;html=1;verticalAlign=middle;whiteSpace=wrap;rounded=0;strokeWidth=1;labelBackgroundColor=none;perimeterSpacing=0;fontSize=15;fontStyle=0" vertex="1" parent="1">
          <mxGeometry x="999.5" y="1025" width="60" height="30" as="geometry" />
        </mxCell>
        <mxCell id="7cckKoWY60Il6BobaiOP-106" value="" style="rounded=0;whiteSpace=wrap;html=1;labelBackgroundColor=none;" vertex="1" parent="1">
          <mxGeometry x="375" y="760" width="120" height="60" as="geometry" />
        </mxCell>
        <mxCell id="7cckKoWY60Il6BobaiOP-107" style="edgeStyle=none;rounded=0;orthogonalLoop=1;jettySize=auto;html=1;entryX=0;entryY=0.25;entryDx=0;entryDy=0;labelBackgroundColor=none;fontColor=default;endArrow=none;endFill=0;exitX=1;exitY=0.5;exitDx=0;exitDy=0;" edge="1" parent="1" source="7cckKoWY60Il6BobaiOP-125" target="7cckKoWY60Il6BobaiOP-106">
          <mxGeometry relative="1" as="geometry">
            <mxPoint x="248.48887247015705" y="740.3623887419653" as="sourcePoint" />
          </mxGeometry>
        </mxCell>
        <mxCell id="7cckKoWY60Il6BobaiOP-109" style="edgeStyle=none;rounded=0;orthogonalLoop=1;jettySize=auto;html=1;labelBackgroundColor=none;fontColor=default;endArrow=none;endFill=0;exitX=0.995;exitY=0.688;exitDx=0;exitDy=0;exitPerimeter=0;" edge="1" parent="1" source="7cckKoWY60Il6BobaiOP-123" target="7cckKoWY60Il6BobaiOP-106">
          <mxGeometry relative="1" as="geometry">
            <mxPoint x="244.21105272655905" y="806.2713569989646" as="sourcePoint" />
          </mxGeometry>
        </mxCell>
        <mxCell id="7cckKoWY60Il6BobaiOP-111" style="edgeStyle=none;rounded=0;orthogonalLoop=1;jettySize=auto;html=1;exitX=1;exitY=0.5;exitDx=0;exitDy=0;entryX=0;entryY=1;entryDx=0;entryDy=0;labelBackgroundColor=none;fontColor=default;endArrow=none;endFill=0;" edge="1" parent="1" target="7cckKoWY60Il6BobaiOP-106">
          <mxGeometry relative="1" as="geometry">
            <mxPoint x="284.9999999999884" y="900" as="sourcePoint" />
          </mxGeometry>
        </mxCell>
        <mxCell id="7cckKoWY60Il6BobaiOP-113" style="edgeStyle=none;rounded=0;orthogonalLoop=1;jettySize=auto;html=1;labelBackgroundColor=none;fontColor=default;endArrow=none;endFill=0;" edge="1" parent="1" source="7cckKoWY60Il6BobaiOP-119" target="7cckKoWY60Il6BobaiOP-106">
          <mxGeometry relative="1" as="geometry">
            <mxPoint x="415" y="830" as="targetPoint" />
            <mxPoint x="369.76187060185475" y="920.4762587962905" as="sourcePoint" />
          </mxGeometry>
        </mxCell>
        <mxCell id="7cckKoWY60Il6BobaiOP-115" value="Customer" style="text;strokeColor=none;align=center;fillColor=none;html=1;verticalAlign=middle;whiteSpace=wrap;rounded=0;strokeWidth=1;labelBackgroundColor=none;perimeterSpacing=0;fontSize=20;" vertex="1" parent="1">
          <mxGeometry x="405" y="775" width="60" height="30" as="geometry" />
        </mxCell>
        <mxCell id="7cckKoWY60Il6BobaiOP-117" value="" style="ellipse;whiteSpace=wrap;html=1;labelBackgroundColor=none;" vertex="1" parent="1">
          <mxGeometry x="690" y="1025" width="90" height="40" as="geometry" />
        </mxCell>
        <mxCell id="7cckKoWY60Il6BobaiOP-118" value="pay_method" style="text;strokeColor=none;align=center;fillColor=none;html=1;verticalAlign=middle;whiteSpace=wrap;rounded=0;strokeWidth=1;labelBackgroundColor=none;perimeterSpacing=0;fontSize=15;fontStyle=0" vertex="1" parent="1">
          <mxGeometry x="705" y="1030" width="60" height="30" as="geometry" />
        </mxCell>
        <mxCell id="7cckKoWY60Il6BobaiOP-119" value="" style="ellipse;whiteSpace=wrap;html=1;labelBackgroundColor=none;" vertex="1" parent="1">
          <mxGeometry x="280" y="985" width="90" height="40" as="geometry" />
        </mxCell>
        <mxCell id="7cckKoWY60Il6BobaiOP-120" value="Postal_code" style="text;strokeColor=none;align=center;fillColor=none;html=1;verticalAlign=middle;whiteSpace=wrap;rounded=0;strokeWidth=1;labelBackgroundColor=none;perimeterSpacing=0;fontSize=14;fontStyle=0" vertex="1" parent="1">
          <mxGeometry x="295" y="990" width="60" height="30" as="geometry" />
        </mxCell>
        <mxCell id="7cckKoWY60Il6BobaiOP-146" style="edgeStyle=none;rounded=0;orthogonalLoop=1;jettySize=auto;html=1;exitX=0;exitY=0.5;exitDx=0;exitDy=0;entryX=1;entryY=0;entryDx=0;entryDy=0;" edge="1" parent="1" source="7cckKoWY60Il6BobaiOP-121" target="7cckKoWY60Il6BobaiOP-140">
          <mxGeometry relative="1" as="geometry" />
        </mxCell>
        <mxCell id="7cckKoWY60Il6BobaiOP-121" value="" style="ellipse;whiteSpace=wrap;html=1;labelBackgroundColor=none;" vertex="1" parent="1">
          <mxGeometry x="195" y="885" width="90" height="40" as="geometry" />
        </mxCell>
        <mxCell id="7cckKoWY60Il6BobaiOP-122" value="Name" style="text;strokeColor=none;align=center;fillColor=none;html=1;verticalAlign=middle;whiteSpace=wrap;rounded=0;strokeWidth=1;labelBackgroundColor=none;perimeterSpacing=0;fontSize=16;fontStyle=0" vertex="1" parent="1">
          <mxGeometry x="210" y="890" width="60" height="30" as="geometry" />
        </mxCell>
        <mxCell id="7cckKoWY60Il6BobaiOP-123" value="" style="ellipse;whiteSpace=wrap;html=1;labelBackgroundColor=none;" vertex="1" parent="1">
          <mxGeometry x="40" y="780" width="90" height="40" as="geometry" />
        </mxCell>
        <mxCell id="7cckKoWY60Il6BobaiOP-124" value="State" style="text;strokeColor=none;align=center;fillColor=none;html=1;verticalAlign=middle;whiteSpace=wrap;rounded=0;strokeWidth=1;labelBackgroundColor=none;perimeterSpacing=0;fontSize=16;fontStyle=0" vertex="1" parent="1">
          <mxGeometry x="55" y="785" width="60" height="30" as="geometry" />
        </mxCell>
        <mxCell id="7cckKoWY60Il6BobaiOP-125" value="" style="ellipse;whiteSpace=wrap;html=1;labelBackgroundColor=none;" vertex="1" parent="1">
          <mxGeometry x="140" y="740" width="90" height="40" as="geometry" />
        </mxCell>
        <mxCell id="7cckKoWY60Il6BobaiOP-126" value="City" style="text;strokeColor=none;align=center;fillColor=none;html=1;verticalAlign=middle;whiteSpace=wrap;rounded=0;strokeWidth=1;labelBackgroundColor=none;perimeterSpacing=0;fontSize=16;fontStyle=0" vertex="1" parent="1">
          <mxGeometry x="155" y="745" width="60" height="30" as="geometry" />
        </mxCell>
        <mxCell id="7cckKoWY60Il6BobaiOP-137" style="rounded=0;orthogonalLoop=1;jettySize=auto;html=1;exitX=0.5;exitY=0;exitDx=0;exitDy=0;endArrow=none;endFill=0;" edge="1" parent="1" source="7cckKoWY60Il6BobaiOP-127" target="7cckKoWY60Il6BobaiOP-106">
          <mxGeometry relative="1" as="geometry" />
        </mxCell>
        <mxCell id="7cckKoWY60Il6BobaiOP-127" value="" style="ellipse;whiteSpace=wrap;html=1;labelBackgroundColor=none;" vertex="1" parent="1">
          <mxGeometry x="380" y="930" width="90" height="40" as="geometry" />
        </mxCell>
        <mxCell id="7cckKoWY60Il6BobaiOP-128" value="pay_id" style="text;strokeColor=none;align=center;fillColor=none;html=1;verticalAlign=middle;whiteSpace=wrap;rounded=0;strokeWidth=1;labelBackgroundColor=none;perimeterSpacing=0;fontSize=16;fontStyle=4" vertex="1" parent="1">
          <mxGeometry x="392.5" y="930" width="65" height="35" as="geometry" />
        </mxCell>
        <mxCell id="7cckKoWY60Il6BobaiOP-136" style="rounded=0;orthogonalLoop=1;jettySize=auto;html=1;endArrow=none;endFill=0;" edge="1" parent="1" source="7cckKoWY60Il6BobaiOP-129">
          <mxGeometry relative="1" as="geometry">
            <mxPoint x="370" y="810" as="targetPoint" />
          </mxGeometry>
        </mxCell>
        <mxCell id="7cckKoWY60Il6BobaiOP-129" value="" style="ellipse;whiteSpace=wrap;html=1;labelBackgroundColor=none;" vertex="1" parent="1">
          <mxGeometry x="-20" y="860" width="90" height="40" as="geometry" />
        </mxCell>
        <mxCell id="7cckKoWY60Il6BobaiOP-130" value="Age" style="text;strokeColor=none;align=center;fillColor=none;html=1;verticalAlign=middle;whiteSpace=wrap;rounded=0;strokeWidth=1;labelBackgroundColor=none;perimeterSpacing=0;fontSize=16;fontStyle=0" vertex="1" parent="1">
          <mxGeometry x="-5" y="865" width="60" height="30" as="geometry" />
        </mxCell>
        <mxCell id="7cckKoWY60Il6BobaiOP-138" style="edgeStyle=none;rounded=0;orthogonalLoop=1;jettySize=auto;html=1;entryX=0;entryY=0;entryDx=0;entryDy=0;endArrow=none;endFill=0;" edge="1" parent="1" source="7cckKoWY60Il6BobaiOP-131" target="7cckKoWY60Il6BobaiOP-106">
          <mxGeometry relative="1" as="geometry" />
        </mxCell>
        <mxCell id="7cckKoWY60Il6BobaiOP-131" value="" style="ellipse;whiteSpace=wrap;html=1;labelBackgroundColor=none;" vertex="1" parent="1">
          <mxGeometry x="95" y="670" width="90" height="40" as="geometry" />
        </mxCell>
        <mxCell id="7cckKoWY60Il6BobaiOP-132" value="Slot_id" style="text;strokeColor=none;align=center;fillColor=none;html=1;verticalAlign=middle;whiteSpace=wrap;rounded=0;strokeWidth=1;labelBackgroundColor=none;perimeterSpacing=0;fontSize=16;fontStyle=0" vertex="1" parent="1">
          <mxGeometry x="110" y="675" width="60" height="30" as="geometry" />
        </mxCell>
        <mxCell id="7cckKoWY60Il6BobaiOP-139" style="edgeStyle=none;rounded=0;orthogonalLoop=1;jettySize=auto;html=1;exitX=1;exitY=0.5;exitDx=0;exitDy=0;entryX=0.25;entryY=0;entryDx=0;entryDy=0;endArrow=none;endFill=0;" edge="1" parent="1" source="7cckKoWY60Il6BobaiOP-133" target="7cckKoWY60Il6BobaiOP-106">
          <mxGeometry relative="1" as="geometry" />
        </mxCell>
        <mxCell id="7cckKoWY60Il6BobaiOP-133" value="" style="ellipse;whiteSpace=wrap;html=1;labelBackgroundColor=none;" vertex="1" parent="1">
          <mxGeometry x="320" y="635" width="90" height="40" as="geometry" />
        </mxCell>
        <mxCell id="7cckKoWY60Il6BobaiOP-140" value="" style="ellipse;whiteSpace=wrap;html=1;labelBackgroundColor=none;" vertex="1" parent="1">
          <mxGeometry x="75" y="930" width="90" height="40" as="geometry" />
        </mxCell>
        <mxCell id="7cckKoWY60Il6BobaiOP-141" value="F_name" style="text;strokeColor=none;align=center;fillColor=none;html=1;verticalAlign=middle;whiteSpace=wrap;rounded=0;strokeWidth=1;labelBackgroundColor=none;perimeterSpacing=0;fontSize=16;fontStyle=0" vertex="1" parent="1">
          <mxGeometry x="90" y="935" width="60" height="30" as="geometry" />
        </mxCell>
        <mxCell id="7cckKoWY60Il6BobaiOP-142" value="" style="ellipse;whiteSpace=wrap;html=1;labelBackgroundColor=none;" vertex="1" parent="1">
          <mxGeometry x="140" y="1000" width="90" height="40" as="geometry" />
        </mxCell>
        <mxCell id="7cckKoWY60Il6BobaiOP-143" value="L_Name" style="text;strokeColor=none;align=center;fillColor=none;html=1;verticalAlign=middle;whiteSpace=wrap;rounded=0;strokeWidth=1;labelBackgroundColor=none;perimeterSpacing=0;fontSize=16;fontStyle=0" vertex="1" parent="1">
          <mxGeometry x="155" y="1005" width="60" height="30" as="geometry" />
        </mxCell>
        <mxCell id="7cckKoWY60Il6BobaiOP-149" style="edgeStyle=none;rounded=0;orthogonalLoop=1;jettySize=auto;html=1;entryX=0.744;entryY=-0.017;entryDx=0;entryDy=0;entryPerimeter=0;" edge="1" parent="1" source="7cckKoWY60Il6BobaiOP-122" target="7cckKoWY60Il6BobaiOP-142">
          <mxGeometry relative="1" as="geometry" />
        </mxCell>
        <mxCell id="7cckKoWY60Il6BobaiOP-151" value="" style="ellipse;whiteSpace=wrap;html=1;labelBackgroundColor=none;" vertex="1" parent="1">
          <mxGeometry x="330" y="640" width="70" height="30" as="geometry" />
        </mxCell>
        <mxCell id="7cckKoWY60Il6BobaiOP-152" value="Phone_no" style="text;strokeColor=none;align=center;fillColor=none;html=1;verticalAlign=middle;whiteSpace=wrap;rounded=0;strokeWidth=1;labelBackgroundColor=none;perimeterSpacing=0;fontSize=14;fontStyle=0" vertex="1" parent="1">
          <mxGeometry x="335" y="640" width="60" height="30" as="geometry" />
        </mxCell>
        <mxCell id="7cckKoWY60Il6BobaiOP-156" value="" style="ellipse;whiteSpace=wrap;html=1;labelBackgroundColor=none;" vertex="1" parent="1">
          <mxGeometry x="210" y="640" width="90" height="40" as="geometry" />
        </mxCell>
        <mxCell id="7cckKoWY60Il6BobaiOP-159" style="edgeStyle=none;rounded=0;orthogonalLoop=1;jettySize=auto;html=1;entryX=0.25;entryY=0;entryDx=0;entryDy=0;endArrow=none;endFill=0;" edge="1" parent="1" source="7cckKoWY60Il6BobaiOP-157" target="7cckKoWY60Il6BobaiOP-106">
          <mxGeometry relative="1" as="geometry" />
        </mxCell>
        <mxCell id="7cckKoWY60Il6BobaiOP-157" value="Customer_id" style="text;strokeColor=none;align=center;fillColor=none;html=1;verticalAlign=middle;whiteSpace=wrap;rounded=0;strokeWidth=1;labelBackgroundColor=none;perimeterSpacing=0;fontSize=14;fontStyle=4" vertex="1" parent="1">
          <mxGeometry x="225" y="645" width="60" height="30" as="geometry" />
        </mxCell>
        <mxCell id="7cckKoWY60Il6BobaiOP-160" value="Booking" style="text;strokeColor=none;align=center;fillColor=none;html=1;verticalAlign=middle;whiteSpace=wrap;rounded=0;strokeWidth=1;labelBackgroundColor=none;perimeterSpacing=0;fontSize=13;fontStyle=0" vertex="1" parent="1">
          <mxGeometry x="675" y="685" width="60" height="30" as="geometry" />
        </mxCell>
        <mxCell id="7cckKoWY60Il6BobaiOP-169" style="edgeStyle=none;rounded=0;orthogonalLoop=1;jettySize=auto;html=1;exitX=1;exitY=0.5;exitDx=0;exitDy=0;entryX=0.5;entryY=0;entryDx=0;entryDy=0;endArrow=none;endFill=0;" edge="1" parent="1" source="7cckKoWY60Il6BobaiOP-163" target="7cckKoWY60Il6BobaiOP-87">
          <mxGeometry relative="1" as="geometry" />
        </mxCell>
        <mxCell id="7cckKoWY60Il6BobaiOP-163" value="" style="ellipse;whiteSpace=wrap;html=1;labelBackgroundColor=none;" vertex="1" parent="1">
          <mxGeometry x="560" y="620" width="90" height="40" as="geometry" />
        </mxCell>
        <mxCell id="7cckKoWY60Il6BobaiOP-164" value="check_out_time" style="text;strokeColor=none;align=center;fillColor=none;html=1;verticalAlign=middle;whiteSpace=wrap;rounded=0;strokeWidth=1;labelBackgroundColor=none;perimeterSpacing=0;fontSize=12;fontStyle=0" vertex="1" parent="1">
          <mxGeometry x="575" y="625" width="60" height="30" as="geometry" />
        </mxCell>
        <mxCell id="7cckKoWY60Il6BobaiOP-170" style="edgeStyle=none;rounded=0;orthogonalLoop=1;jettySize=auto;html=1;exitX=1;exitY=0.5;exitDx=0;exitDy=0;entryX=0.5;entryY=1;entryDx=0;entryDy=0;endArrow=none;endFill=0;" edge="1" parent="1" source="7cckKoWY60Il6BobaiOP-165" target="7cckKoWY60Il6BobaiOP-87">
          <mxGeometry relative="1" as="geometry" />
        </mxCell>
        <mxCell id="7cckKoWY60Il6BobaiOP-165" value="" style="ellipse;whiteSpace=wrap;html=1;labelBackgroundColor=none;" vertex="1" parent="1">
          <mxGeometry x="590" y="760" width="90" height="40" as="geometry" />
        </mxCell>
        <mxCell id="7cckKoWY60Il6BobaiOP-166" value="date" style="text;strokeColor=none;align=center;fillColor=none;html=1;verticalAlign=middle;whiteSpace=wrap;rounded=0;strokeWidth=1;labelBackgroundColor=none;perimeterSpacing=0;fontSize=16;fontStyle=0" vertex="1" parent="1">
          <mxGeometry x="605" y="765" width="60" height="30" as="geometry" />
        </mxCell>
        <mxCell id="7cckKoWY60Il6BobaiOP-171" style="edgeStyle=none;rounded=0;orthogonalLoop=1;jettySize=auto;html=1;exitX=0.5;exitY=0;exitDx=0;exitDy=0;endArrow=none;endFill=0;entryX=0.5;entryY=1;entryDx=0;entryDy=0;" edge="1" parent="1" source="7cckKoWY60Il6BobaiOP-167" target="7cckKoWY60Il6BobaiOP-87">
          <mxGeometry relative="1" as="geometry">
            <mxPoint x="710" y="750" as="targetPoint" />
          </mxGeometry>
        </mxCell>
        <mxCell id="7cckKoWY60Il6BobaiOP-167" value="" style="ellipse;whiteSpace=wrap;html=1;labelBackgroundColor=none;" vertex="1" parent="1">
          <mxGeometry x="694.5" y="800" width="90" height="40" as="geometry" />
        </mxCell>
        <mxCell id="7cckKoWY60Il6BobaiOP-168" value="check_in_time" style="text;strokeColor=none;align=center;fillColor=none;html=1;verticalAlign=middle;whiteSpace=wrap;rounded=0;strokeWidth=1;labelBackgroundColor=none;perimeterSpacing=0;fontSize=13;fontStyle=0" vertex="1" parent="1">
          <mxGeometry x="709.5" y="805" width="60" height="30" as="geometry" />
        </mxCell>
        <mxCell id="7cckKoWY60Il6BobaiOP-172" value="Parking_block" style="text;strokeColor=none;align=center;fillColor=none;html=1;verticalAlign=middle;whiteSpace=wrap;rounded=0;strokeWidth=1;labelBackgroundColor=none;perimeterSpacing=0;fontSize=16;" vertex="1" parent="1">
          <mxGeometry x="780" y="510" width="60" height="30" as="geometry" />
        </mxCell>
        <mxCell id="7cckKoWY60Il6BobaiOP-174" value="Payment" style="text;strokeColor=none;align=center;fillColor=none;html=1;verticalAlign=middle;whiteSpace=wrap;rounded=0;strokeWidth=1;labelBackgroundColor=none;perimeterSpacing=0;fontSize=20;" vertex="1" parent="1">
          <mxGeometry x="834.5" y="960" width="60" height="30" as="geometry" />
        </mxCell>
        <mxCell id="7cckKoWY60Il6BobaiOP-175" style="edgeStyle=none;rounded=0;orthogonalLoop=1;jettySize=auto;html=1;exitX=1;exitY=0.5;exitDx=0;exitDy=0;entryX=0.131;entryY=0.998;entryDx=0;entryDy=0;entryPerimeter=0;endArrow=none;endFill=0;" edge="1" parent="1" source="7cckKoWY60Il6BobaiOP-117" target="7cckKoWY60Il6BobaiOP-89">
          <mxGeometry relative="1" as="geometry" />
        </mxCell>
        <mxCell id="7cckKoWY60Il6BobaiOP-176" value="annual_income" style="text;strokeColor=none;align=center;fillColor=none;html=1;verticalAlign=middle;whiteSpace=wrap;rounded=0;strokeWidth=1;labelBackgroundColor=none;perimeterSpacing=0;fontSize=13;fontStyle=0" vertex="1" parent="1">
          <mxGeometry x="105" y="595" width="60" height="30" as="geometry" />
        </mxCell>
        <mxCell id="7cckKoWY60Il6BobaiOP-177" value="p_address" style="text;strokeColor=none;align=center;fillColor=none;html=1;verticalAlign=middle;whiteSpace=wrap;rounded=0;strokeWidth=1;labelBackgroundColor=none;perimeterSpacing=0;fontSize=13;fontStyle=0" vertex="1" parent="1">
          <mxGeometry x="-15" y="555" width="60" height="30" as="geometry" />
        </mxCell>
        <mxCell id="7cckKoWY60Il6BobaiOP-178" value="car_book" style="text;strokeColor=none;align=center;fillColor=none;html=1;verticalAlign=middle;whiteSpace=wrap;rounded=0;strokeWidth=1;labelBackgroundColor=none;perimeterSpacing=0;fontSize=13;fontStyle=0" vertex="1" parent="1">
          <mxGeometry x="-60" y="465" width="60" height="30" as="geometry" />
        </mxCell>
        <mxCell id="7cckKoWY60Il6BobaiOP-179" value="parking_id" style="text;strokeColor=none;align=center;fillColor=none;html=1;verticalAlign=middle;whiteSpace=wrap;rounded=0;strokeWidth=1;labelBackgroundColor=none;perimeterSpacing=0;fontSize=14;fontStyle=4" vertex="1" parent="1">
          <mxGeometry x="-45" y="385" width="60" height="30" as="geometry" />
        </mxCell>
        <mxCell id="7cckKoWY60Il6BobaiOP-180" value="own" style="text;strokeColor=none;align=center;fillColor=none;html=1;verticalAlign=middle;whiteSpace=wrap;rounded=0;strokeWidth=1;labelBackgroundColor=none;perimeterSpacing=0;fontSize=16;fontStyle=0" vertex="1" parent="1">
          <mxGeometry x="460" y="510" width="60" height="30" as="geometry" />
        </mxCell>
        <mxCell id="7cckKoWY60Il6BobaiOP-181" value="work&amp;nbsp;&lt;div&gt;for&lt;/div&gt;" style="text;strokeColor=none;align=center;fillColor=none;html=1;verticalAlign=middle;whiteSpace=wrap;rounded=0;strokeWidth=1;labelBackgroundColor=none;perimeterSpacing=0;fontSize=16;fontStyle=0" vertex="1" parent="1">
          <mxGeometry x="460" y="360" width="60" height="30" as="geometry" />
        </mxCell>
        <mxCell id="7cckKoWY60Il6BobaiOP-201" style="edgeStyle=none;rounded=0;orthogonalLoop=1;jettySize=auto;html=1;shape=link;entryX=1;entryY=0.5;entryDx=0;entryDy=0;" edge="1" parent="1" source="7cckKoWY60Il6BobaiOP-182" target="7cckKoWY60Il6BobaiOP-200">
          <mxGeometry relative="1" as="geometry">
            <mxPoint x="700" y="1240" as="targetPoint" />
          </mxGeometry>
        </mxCell>
        <mxCell id="7cckKoWY60Il6BobaiOP-182" value="" style="rounded=0;whiteSpace=wrap;html=1;labelBackgroundColor=none;" vertex="1" parent="1">
          <mxGeometry x="460" y="1210" width="120" height="60" as="geometry" />
        </mxCell>
        <mxCell id="7cckKoWY60Il6BobaiOP-183" style="edgeStyle=none;rounded=0;orthogonalLoop=1;jettySize=auto;html=1;entryX=0;entryY=0.25;entryDx=0;entryDy=0;labelBackgroundColor=none;fontColor=default;endArrow=none;endFill=0;" edge="1" parent="1" source="7cckKoWY60Il6BobaiOP-184" target="7cckKoWY60Il6BobaiOP-182">
          <mxGeometry relative="1" as="geometry" />
        </mxCell>
        <mxCell id="7cckKoWY60Il6BobaiOP-184" value="" style="ellipse;whiteSpace=wrap;html=1;labelBackgroundColor=none;" vertex="1" parent="1">
          <mxGeometry x="250" y="1160" width="90" height="40" as="geometry" />
        </mxCell>
        <mxCell id="7cckKoWY60Il6BobaiOP-185" style="edgeStyle=none;rounded=0;orthogonalLoop=1;jettySize=auto;html=1;labelBackgroundColor=none;fontColor=default;endArrow=none;endFill=0;" edge="1" parent="1" source="7cckKoWY60Il6BobaiOP-186" target="7cckKoWY60Il6BobaiOP-182">
          <mxGeometry relative="1" as="geometry" />
        </mxCell>
        <mxCell id="7cckKoWY60Il6BobaiOP-186" value="" style="ellipse;whiteSpace=wrap;html=1;labelBackgroundColor=none;" vertex="1" parent="1">
          <mxGeometry x="240" y="1240" width="90" height="40" as="geometry" />
        </mxCell>
        <mxCell id="7cckKoWY60Il6BobaiOP-187" style="edgeStyle=none;rounded=0;orthogonalLoop=1;jettySize=auto;html=1;exitX=1;exitY=0.5;exitDx=0;exitDy=0;entryX=0;entryY=1;entryDx=0;entryDy=0;labelBackgroundColor=none;fontColor=default;endArrow=none;endFill=0;" edge="1" parent="1" source="7cckKoWY60Il6BobaiOP-188" target="7cckKoWY60Il6BobaiOP-182">
          <mxGeometry relative="1" as="geometry" />
        </mxCell>
        <mxCell id="7cckKoWY60Il6BobaiOP-188" value="" style="ellipse;whiteSpace=wrap;html=1;labelBackgroundColor=none;" vertex="1" parent="1">
          <mxGeometry x="280" y="1330" width="90" height="40" as="geometry" />
        </mxCell>
        <mxCell id="7cckKoWY60Il6BobaiOP-189" style="edgeStyle=none;rounded=0;orthogonalLoop=1;jettySize=auto;html=1;labelBackgroundColor=none;fontColor=default;endArrow=none;endFill=0;" edge="1" parent="1" source="7cckKoWY60Il6BobaiOP-190" target="7cckKoWY60Il6BobaiOP-182">
          <mxGeometry relative="1" as="geometry">
            <mxPoint x="500" y="1280" as="targetPoint" />
          </mxGeometry>
        </mxCell>
        <mxCell id="7cckKoWY60Il6BobaiOP-190" value="" style="ellipse;whiteSpace=wrap;html=1;labelBackgroundColor=none;" vertex="1" parent="1">
          <mxGeometry x="400" y="1370" width="90" height="40" as="geometry" />
        </mxCell>
        <mxCell id="7cckKoWY60Il6BobaiOP-191" value="Vehicle" style="text;strokeColor=none;align=center;fillColor=none;html=1;verticalAlign=middle;whiteSpace=wrap;rounded=0;strokeWidth=1;labelBackgroundColor=none;perimeterSpacing=0;fontSize=20;" vertex="1" parent="1">
          <mxGeometry x="490" y="1225" width="60" height="30" as="geometry" />
        </mxCell>
        <mxCell id="7cckKoWY60Il6BobaiOP-192" value="customer_id" style="text;strokeColor=none;align=center;fillColor=none;html=1;verticalAlign=middle;whiteSpace=wrap;rounded=0;strokeWidth=1;labelBackgroundColor=none;perimeterSpacing=0;fontSize=13;fontStyle=0" vertex="1" parent="1">
          <mxGeometry x="415" y="1375" width="60" height="30" as="geometry" />
        </mxCell>
        <mxCell id="7cckKoWY60Il6BobaiOP-193" value="color" style="text;strokeColor=none;align=center;fillColor=none;html=1;verticalAlign=middle;whiteSpace=wrap;rounded=0;strokeWidth=1;labelBackgroundColor=none;perimeterSpacing=0;fontSize=13;fontStyle=0" vertex="1" parent="1">
          <mxGeometry x="295" y="1335" width="60" height="30" as="geometry" />
        </mxCell>
        <mxCell id="7cckKoWY60Il6BobaiOP-194" value="v_name" style="text;strokeColor=none;align=center;fillColor=none;html=1;verticalAlign=middle;whiteSpace=wrap;rounded=0;strokeWidth=1;labelBackgroundColor=none;perimeterSpacing=0;fontSize=13;fontStyle=0" vertex="1" parent="1">
          <mxGeometry x="250" y="1245" width="60" height="30" as="geometry" />
        </mxCell>
        <mxCell id="7cckKoWY60Il6BobaiOP-195" value="v_num" style="text;strokeColor=none;align=center;fillColor=none;html=1;verticalAlign=middle;whiteSpace=wrap;rounded=0;strokeWidth=1;labelBackgroundColor=none;perimeterSpacing=0;fontSize=14;fontStyle=4" vertex="1" parent="1">
          <mxGeometry x="265" y="1165" width="60" height="30" as="geometry" />
        </mxCell>
        <mxCell id="7cckKoWY60Il6BobaiOP-198" style="edgeStyle=none;rounded=0;orthogonalLoop=1;jettySize=auto;html=1;exitX=0.5;exitY=0;exitDx=0;exitDy=0;entryX=0.75;entryY=1;entryDx=0;entryDy=0;" edge="1" parent="1" source="7cckKoWY60Il6BobaiOP-196" target="7cckKoWY60Il6BobaiOP-106">
          <mxGeometry relative="1" as="geometry" />
        </mxCell>
        <mxCell id="7cckKoWY60Il6BobaiOP-199" style="edgeStyle=none;rounded=0;orthogonalLoop=1;jettySize=auto;html=1;exitX=0.5;exitY=1;exitDx=0;exitDy=0;entryX=0.5;entryY=0;entryDx=0;entryDy=0;endArrow=none;endFill=0;" edge="1" parent="1" source="7cckKoWY60Il6BobaiOP-196" target="7cckKoWY60Il6BobaiOP-182">
          <mxGeometry relative="1" as="geometry" />
        </mxCell>
        <mxCell id="7cckKoWY60Il6BobaiOP-196" value="" style="rhombus;whiteSpace=wrap;html=1;labelBackgroundColor=none;" vertex="1" parent="1">
          <mxGeometry x="510" y="990" width="80" height="80" as="geometry" />
        </mxCell>
        <mxCell id="7cckKoWY60Il6BobaiOP-197" value="has" style="text;strokeColor=none;align=center;fillColor=none;html=1;verticalAlign=middle;whiteSpace=wrap;rounded=0;strokeWidth=1;labelBackgroundColor=none;perimeterSpacing=0;fontSize=16;fontStyle=0" vertex="1" parent="1">
          <mxGeometry x="520" y="1020" width="60" height="30" as="geometry" />
        </mxCell>
        <mxCell id="7cckKoWY60Il6BobaiOP-233" style="edgeStyle=none;rounded=0;orthogonalLoop=1;jettySize=auto;html=1;exitX=0;exitY=0;exitDx=0;exitDy=0;entryX=0;entryY=0.25;entryDx=0;entryDy=0;endArrow=none;endFill=0;" edge="1" parent="1" source="7cckKoWY60Il6BobaiOP-202" target="7cckKoWY60Il6BobaiOP-200">
          <mxGeometry relative="1" as="geometry" />
        </mxCell>
        <mxCell id="7cckKoWY60Il6BobaiOP-202" value="" style="rounded=0;whiteSpace=wrap;html=1;labelBackgroundColor=none;" vertex="1" parent="1">
          <mxGeometry x="894.5" y="1430" width="120" height="60" as="geometry" />
        </mxCell>
        <mxCell id="7cckKoWY60Il6BobaiOP-203" value="" style="rounded=0;whiteSpace=wrap;html=1;labelBackgroundColor=none;" vertex="1" parent="1">
          <mxGeometry x="899.5" y="1435" width="110" height="50" as="geometry" />
        </mxCell>
        <mxCell id="7cckKoWY60Il6BobaiOP-204" value="" style="ellipse;whiteSpace=wrap;html=1;labelBackgroundColor=none;" vertex="1" parent="1">
          <mxGeometry x="874.5" y="1555" width="90" height="40" as="geometry" />
        </mxCell>
        <mxCell id="7cckKoWY60Il6BobaiOP-205" style="edgeStyle=none;rounded=0;orthogonalLoop=1;jettySize=auto;html=1;endArrow=none;endFill=0;entryX=0.415;entryY=0.998;entryDx=0;entryDy=0;entryPerimeter=0;" edge="1" parent="1" target="7cckKoWY60Il6BobaiOP-202">
          <mxGeometry relative="1" as="geometry">
            <mxPoint x="950" y="1495" as="targetPoint" />
            <mxPoint x="930" y="1555" as="sourcePoint" />
          </mxGeometry>
        </mxCell>
        <mxCell id="7cckKoWY60Il6BobaiOP-206" value="No_of_doors" style="text;strokeColor=none;align=center;fillColor=none;html=1;verticalAlign=middle;whiteSpace=wrap;rounded=0;strokeWidth=1;labelBackgroundColor=none;perimeterSpacing=0;fontSize=15;fontStyle=0" vertex="1" parent="1">
          <mxGeometry x="889.5" y="1560" width="60" height="30" as="geometry" />
        </mxCell>
        <mxCell id="7cckKoWY60Il6BobaiOP-207" style="rounded=0;orthogonalLoop=1;jettySize=auto;html=1;entryX=1;entryY=0.5;entryDx=0;entryDy=0;endArrow=none;endFill=0;" edge="1" parent="1" source="7cckKoWY60Il6BobaiOP-208" target="7cckKoWY60Il6BobaiOP-202">
          <mxGeometry relative="1" as="geometry" />
        </mxCell>
        <mxCell id="7cckKoWY60Il6BobaiOP-208" value="" style="ellipse;whiteSpace=wrap;html=1;labelBackgroundColor=none;" vertex="1" parent="1">
          <mxGeometry x="1129.5" y="1420" width="90" height="40" as="geometry" />
        </mxCell>
        <mxCell id="7cckKoWY60Il6BobaiOP-209" value="Fuel_type" style="text;strokeColor=none;align=center;fillColor=none;html=1;verticalAlign=middle;whiteSpace=wrap;rounded=0;strokeWidth=1;labelBackgroundColor=none;perimeterSpacing=0;fontSize=15;fontStyle=0" vertex="1" parent="1">
          <mxGeometry x="1144.5" y="1425" width="60" height="30" as="geometry" />
        </mxCell>
        <mxCell id="7cckKoWY60Il6BobaiOP-210" style="edgeStyle=none;rounded=0;orthogonalLoop=1;jettySize=auto;html=1;endArrow=none;endFill=0;entryX=1;entryY=1;entryDx=0;entryDy=0;" edge="1" parent="1" source="7cckKoWY60Il6BobaiOP-211" target="7cckKoWY60Il6BobaiOP-202">
          <mxGeometry relative="1" as="geometry">
            <mxPoint x="1000" y="1495" as="targetPoint" />
          </mxGeometry>
        </mxCell>
        <mxCell id="7cckKoWY60Il6BobaiOP-211" value="" style="ellipse;whiteSpace=wrap;html=1;labelBackgroundColor=none;" vertex="1" parent="1">
          <mxGeometry x="1074.5" y="1505" width="90" height="40" as="geometry" />
        </mxCell>
        <mxCell id="7cckKoWY60Il6BobaiOP-212" value="F_id" style="text;strokeColor=none;align=center;fillColor=none;html=1;verticalAlign=middle;whiteSpace=wrap;rounded=0;strokeWidth=1;labelBackgroundColor=none;perimeterSpacing=0;fontSize=15;fontStyle=4" vertex="1" parent="1">
          <mxGeometry x="1089.5" y="1510" width="60" height="30" as="geometry" />
        </mxCell>
        <mxCell id="7cckKoWY60Il6BobaiOP-213" value="" style="ellipse;whiteSpace=wrap;html=1;labelBackgroundColor=none;" vertex="1" parent="1">
          <mxGeometry x="780" y="1510" width="90" height="40" as="geometry" />
        </mxCell>
        <mxCell id="7cckKoWY60Il6BobaiOP-214" value="v_num" style="text;strokeColor=none;align=center;fillColor=none;html=1;verticalAlign=middle;whiteSpace=wrap;rounded=0;strokeWidth=1;labelBackgroundColor=none;perimeterSpacing=0;fontSize=15;fontStyle=0" vertex="1" parent="1">
          <mxGeometry x="795" y="1515" width="60" height="30" as="geometry" />
        </mxCell>
        <mxCell id="7cckKoWY60Il6BobaiOP-215" value="Payment" style="text;strokeColor=none;align=center;fillColor=none;html=1;verticalAlign=middle;whiteSpace=wrap;rounded=0;strokeWidth=1;labelBackgroundColor=none;perimeterSpacing=0;fontSize=20;" vertex="1" parent="1">
          <mxGeometry x="924.5" y="1445" width="60" height="30" as="geometry" />
        </mxCell>
        <mxCell id="7cckKoWY60Il6BobaiOP-216" style="edgeStyle=none;rounded=0;orthogonalLoop=1;jettySize=auto;html=1;exitX=1;exitY=0.5;exitDx=0;exitDy=0;entryX=0.131;entryY=0.998;entryDx=0;entryDy=0;entryPerimeter=0;endArrow=none;endFill=0;" edge="1" parent="1" source="7cckKoWY60Il6BobaiOP-213" target="7cckKoWY60Il6BobaiOP-202">
          <mxGeometry relative="1" as="geometry" />
        </mxCell>
        <mxCell id="7cckKoWY60Il6BobaiOP-232" style="edgeStyle=none;rounded=0;orthogonalLoop=1;jettySize=auto;html=1;exitX=0;exitY=1;exitDx=0;exitDy=0;entryX=0;entryY=0.75;entryDx=0;entryDy=0;endArrow=none;endFill=0;" edge="1" parent="1" source="7cckKoWY60Il6BobaiOP-217" target="7cckKoWY60Il6BobaiOP-200">
          <mxGeometry relative="1" as="geometry" />
        </mxCell>
        <mxCell id="7cckKoWY60Il6BobaiOP-217" value="" style="rounded=0;whiteSpace=wrap;html=1;labelBackgroundColor=none;" vertex="1" parent="1">
          <mxGeometry x="900" y="1245" width="120" height="60" as="geometry" />
        </mxCell>
        <mxCell id="7cckKoWY60Il6BobaiOP-218" style="rounded=0;orthogonalLoop=1;jettySize=auto;html=1;entryX=0.5;entryY=1;entryDx=0;entryDy=0;endArrow=none;endFill=0;" edge="1" parent="1" source="7cckKoWY60Il6BobaiOP-219" target="7cckKoWY60Il6BobaiOP-221">
          <mxGeometry relative="1" as="geometry" />
        </mxCell>
        <mxCell id="7cckKoWY60Il6BobaiOP-219" value="" style="rounded=0;whiteSpace=wrap;html=1;labelBackgroundColor=none;" vertex="1" parent="1">
          <mxGeometry x="905" y="1250" width="110" height="50" as="geometry" />
        </mxCell>
        <mxCell id="7cckKoWY60Il6BobaiOP-220" value="" style="ellipse;whiteSpace=wrap;html=1;labelBackgroundColor=none;" vertex="1" parent="1">
          <mxGeometry x="880" y="1155" width="90" height="40" as="geometry" />
        </mxCell>
        <mxCell id="7cckKoWY60Il6BobaiOP-221" value="v_name" style="text;strokeColor=none;align=center;fillColor=none;html=1;verticalAlign=middle;whiteSpace=wrap;rounded=0;strokeWidth=1;labelBackgroundColor=none;perimeterSpacing=0;fontSize=16;fontStyle=0" vertex="1" parent="1">
          <mxGeometry x="895" y="1160" width="60" height="30" as="geometry" />
        </mxCell>
        <mxCell id="7cckKoWY60Il6BobaiOP-222" style="rounded=0;orthogonalLoop=1;jettySize=auto;html=1;entryX=0.75;entryY=0;entryDx=0;entryDy=0;endArrow=none;endFill=0;" edge="1" parent="1" source="7cckKoWY60Il6BobaiOP-223" target="7cckKoWY60Il6BobaiOP-219">
          <mxGeometry relative="1" as="geometry" />
        </mxCell>
        <mxCell id="7cckKoWY60Il6BobaiOP-223" value="" style="ellipse;whiteSpace=wrap;html=1;labelBackgroundColor=none;" vertex="1" parent="1">
          <mxGeometry x="1045" y="1140" width="90" height="40" as="geometry" />
        </mxCell>
        <mxCell id="7cckKoWY60Il6BobaiOP-224" value="T_id" style="text;strokeColor=none;align=center;fillColor=none;html=1;verticalAlign=middle;whiteSpace=wrap;rounded=0;strokeWidth=1;labelBackgroundColor=none;perimeterSpacing=0;fontSize=16;fontStyle=4" vertex="1" parent="1">
          <mxGeometry x="1060" y="1145" width="60" height="30" as="geometry" />
        </mxCell>
        <mxCell id="7cckKoWY60Il6BobaiOP-225" style="rounded=0;orthogonalLoop=1;jettySize=auto;html=1;entryX=1;entryY=0.5;entryDx=0;entryDy=0;endArrow=none;endFill=0;" edge="1" parent="1" source="7cckKoWY60Il6BobaiOP-226" target="7cckKoWY60Il6BobaiOP-217">
          <mxGeometry relative="1" as="geometry" />
        </mxCell>
        <mxCell id="7cckKoWY60Il6BobaiOP-226" value="" style="ellipse;whiteSpace=wrap;html=1;labelBackgroundColor=none;" vertex="1" parent="1">
          <mxGeometry x="1135" y="1235" width="90" height="40" as="geometry" />
        </mxCell>
        <mxCell id="7cckKoWY60Il6BobaiOP-227" value="Average" style="text;strokeColor=none;align=center;fillColor=none;html=1;verticalAlign=middle;whiteSpace=wrap;rounded=0;strokeWidth=1;labelBackgroundColor=none;perimeterSpacing=0;fontSize=16;fontStyle=0" vertex="1" parent="1">
          <mxGeometry x="1150" y="1240" width="60" height="30" as="geometry" />
        </mxCell>
        <mxCell id="7cckKoWY60Il6BobaiOP-231" value="T_wheeler" style="text;strokeColor=none;align=center;fillColor=none;html=1;verticalAlign=middle;whiteSpace=wrap;rounded=0;strokeWidth=1;labelBackgroundColor=none;perimeterSpacing=0;fontSize=16;" vertex="1" parent="1">
          <mxGeometry x="930" y="1260" width="60" height="30" as="geometry" />
        </mxCell>
        <mxCell id="7cckKoWY60Il6BobaiOP-234" value="isA" style="text;strokeColor=none;align=center;fillColor=none;html=1;verticalAlign=middle;whiteSpace=wrap;rounded=0;strokeWidth=1;labelBackgroundColor=none;perimeterSpacing=0;fontSize=16;fontStyle=0" vertex="1" parent="1">
          <mxGeometry x="695" y="1345" width="60" height="30" as="geometry" />
        </mxCell>
        <mxCell id="7cckKoWY60Il6BobaiOP-237" style="edgeStyle=none;rounded=0;orthogonalLoop=1;jettySize=auto;html=1;exitX=1;exitY=1;exitDx=0;exitDy=0;entryX=0.25;entryY=0;entryDx=0;entryDy=0;endArrow=none;endFill=0;" edge="1" parent="1" source="7cckKoWY60Il6BobaiOP-235" target="7cckKoWY60Il6BobaiOP-182">
          <mxGeometry relative="1" as="geometry" />
        </mxCell>
        <mxCell id="7cckKoWY60Il6BobaiOP-235" value="" style="ellipse;whiteSpace=wrap;html=1;labelBackgroundColor=none;" vertex="1" parent="1">
          <mxGeometry x="370" y="1100" width="90" height="40" as="geometry" />
        </mxCell>
        <mxCell id="7cckKoWY60Il6BobaiOP-236" value="model_year" style="text;strokeColor=none;align=center;fillColor=none;html=1;verticalAlign=middle;whiteSpace=wrap;rounded=0;strokeWidth=1;labelBackgroundColor=none;perimeterSpacing=0;fontSize=13;fontStyle=0" vertex="1" parent="1">
          <mxGeometry x="380" y="1105" width="60" height="30" as="geometry" />
        </mxCell>
      </root>
    </mxGraphModel>
  </diagram>
</mxfile>
